<mxfile host="app.diagrams.net" modified="2021-09-15T13:02:57.489Z" agent="5.0 (Windows NT 10.0; Win64; x64) AppleWebKit/537.36 (KHTML, like Gecko) Chrome/93.0.4577.63 Safari/537.36" etag="zUsPeqHhFA5U7dJ9Pmc-" version="15.2.7" type="github">
  <diagram id="UBJU3SwQtBCcMsT6MgNt" name="Page-1">
    <mxGraphModel dx="749" dy="458" grid="1" gridSize="10" guides="1" tooltips="1" connect="1" arrows="1" fold="1" page="1" pageScale="1" pageWidth="827" pageHeight="1169" math="0" shadow="0">
      <root>
        <mxCell id="0" />
        <mxCell id="1" parent="0" />
        <mxCell id="49qXQRo_gZD2U18-b2aV-1" value="管理员" style="shape=image;verticalLabelPosition=bottom;labelBackgroundColor=#ffffff;verticalAlign=top;aspect=fixed;imageAspect=0;image=data:image/png,iVBORw0KGgoAAAANSUhEUgAAAE8AAAA1CAYAAAAAjbYhAAAJYElEQVR4Ae2bZ08VTRTH/Qp+FA3vfWGiMTHBYFfQiFhi74m9AyrYe6+IKCJWVLBj7713VBRFEQUVPU9+Jxmybu7lDrDL3pvHSSa7d3d2dvY/p/zPmbnN5F9pMALNGvxkAx6sqamRHz9+aOU81ovv4P3580fKysrk0qVLkpWVJSNHjpSBAwdKamqq5Ofny+PHjxXMWATSV/B+/vwp58+fl4yMDFm1apUcOHBAAdu7d69s3bpVFi9eLJmZmVJUVBSTAPoK3pUrV2TWrFkyY8YMOXv2rHz69KlWwD5//izXr1+X9evXy6JFi6S4uLj2Xqyc+AZedXW1Stf06dPl1q1bYfF49+6drF69WiZMmCCHDh2SZ8+eSazYQ9/Ae/Lkidq4wsLCsMCZG6ht165dpXXr1jJt2jS5ceNGTADoG3iAlpeXJ2/evDEYhT3evXtXxo0bJ23btpX+/fvL8uXLpaqqKmz7aLnhG3g4h6NHjwpOI1J59OiRqrhxHC9evJDfv39Heizw+76Bd/nyZfWuqG+kgt3DoSCBsVR8Aw/PumzZMpk7d67gWcMVHMuFCxcUaECMpeIbeJBjSDAOAPtXUVEhlZWVqsa/fv2Sb9++6TWcw86dO+XkyZOxhJuO1TfwsFlED7t27VKSPHXqVAUSTrd06VKZOHGiRhkLFiyQLVu2CGr+/v37mHAUZpZ9Aw8g9u/fr2o7duxY6dy5s9bhw4fLmDFj1KvOnDlTNm3apF55x44dGoVs3rw5Zvieb+Ddv39fVq5cKfPmzZPt27fLxo0bBYBOnDghp0+fljNnzqiDeP36tTx48ECOHDlSG21MmTJFow5CuJs3b6qKm9mOpqNv4N2+fVsl7+rVq2rbvn79KtjBcAVeh5N5+vSpPkfcO3ToUJkzZ47s27dP6O/jx49RRWF8A+/OnTsa8ANGQwr8kNiY0A2ng9fevXu33Lt3TycDp2NbsL949bomz7YvZzvfwOMjDx48KIBoUwCLaAQnA7Vxxrdv376ttZ+YAbz4tWvXVJ2d7dzv4R5eHRNCdgcqVFd79/ORfnsGHoMyiU6k4uHDhzrgly9fRhqD3i8vL5ecnBxJSUnRLMzFixfl+/fvf6kpqn/8+HGZPXu2jBgxQjZs2KDvCSWF0CJoEFyzT58+6qTWrFkjtuOxGbQn4GGvUKm+fftKly5dtLZp00ZVznamkS48LdQFBwOVwXEQH/PBph8mCCeD00EK8dZfvnzRb0Utaff8+XP13B06dJCWLVtK8+bNFWwSsSRlvSqegMcsIwVkisnLkadDMuB0fKxNwTauW7dOpYX+UF/6IlU1evRoyc7OFkI9+gMg7CFOBRBpb9QT4HEyeHfia5xOXFycTJo0SftCuqFRXhTPwNu2bZtKiAGLwQOeTWzLh7x69UptmcnCIEVINEmDw4cPK7EmdQ/9AUiAPnfunIZ2qDKgmHt4+NLSUlV7pJAIhwnlGc6NpDYWQM/AY8adMSyRBSQYPmdTAA2QQsW3eEomAQdEumrhwoV6hAcSrcAfARAbB2jujAySyqQeO3ZMqZDNeGzaeAoeRt8UJAG7RZrJphjw+PhwxSQRsHVLlizRmBgOSDaG2LmuAoBIKp7XaEdd7W3u+QYewT5qa0tVUC8kiDQ8zyDJmALsqKn0iaSRde7du7c6F9ZAaIsqm3Yc6QtnQyWvyGSi9owJqoMU84zzHcTYdU2eG1DPwGOwTsnLzc3VgdkaZyKItLQ0pTdQCjLKw4YNU8eD8zEVB8DSJUccyahRo2rvmTYciadJRlBxLGgB7QGQCcCpEGMTa9Oed7Vo0UKl05ZMewIe/AsHQfhkClLCkiNk1qZg5Pk4DDqUBerSlAWu2LFjR4FfNil4gMbs4THNi1GTyZMnqyG3AQG7hTScOnVK1c8mfW/Tr20b7CCZnyYHDzsBIYWrGfCQvPnz52tWxOYDAB6izeABkeiiKUug4MXHx/8FHjYQEFBHm4K3hdQiedgnr7iYzbtpExh4Hz58UCPuVFt4HtJnCwJ94Bkx6EwEHhFaAU8k10dgD9HFhhKuubmcLUjh2gUGHhyLvShs6DEF8JAk248kmoDk4hm7d++unprQi9gVegEdoT9oCCDzsV6WwMAjtsRBOCMMqApcythAmw/FzgEgEQQRBbaU8Awagz1FtVlpA0DA9rIECh6Sgdc1YKGyrGHA7OtTyCYjtaEklr4h0fTttUMJFDx4HlvHWEIkDIKmkHfjN+qHI6irmjb0weYg4lDsHWsYVDIsrH8UFBSo2hKqeVkCAw+SbMKmAQMGKFtv37690pfBgwfLkCFDrCuJy1atWmlSNCkpSfs1e/l4x549e9Rx1FeiIwEdOHiDBg3SgJ3UDzEnde3atfWqBP3t2rXTjEzPnj012iB3R7xL1GHMQiQw6ns/MPBwGATVLCGGslX1+RCcBJ4bacZm4kC8VtFQ4wkUPLITZH/5eJIBDak8S5gGeHhW+mQngdeeNarAIwWOt2V/MWpHZamQxRdUGJ6GEyDicN7jOiEcR9pS2YLbo0cPSU9PV9tJPtBrzxpV4BHEs9QIiSUyMBVPS3jGb0CBn+FN+Y3nJIMC7YD08psKPwQ4jmw7c9KfUB/t1bXA1BYjzsshyeT0TMUWkuphsyKRAoCgjnA57hG6QWtQTaSLa4RegIkKh1pS9Aosdz+BgeceiPs3YJExQeoYpLMgXYBnCm0Bz2sqYvoPd4xa8Aj64WcE9U5QOEdVkT5TcDSod1N4WPNOjlELHuoMSM7EgRk4kQU5PFOMlLol1Nz36xg14CE12DOAADhW+AnosWdco2IXAROJ5P8X8DqukwDAifxvMsluaWBLAzsIWGOFs7EYTWi1YsUKPecaFWrCFg0WXyDZtGMRiBAP0CHcqHZja6h+uGYq/fO+Tp06NX0a3g0eoBCXAgrbw1jBYt8Jq1WsepE0YBsFMS8be2gDuOwl4Tn2u2AHsZFQncZU+oC8k9Yy/RG1kPIieQvFIvwjfZaQkKDvsg0BPVk9c4PHeijgkJeDPFPJugASgHIOwJxDiBMTE6VXr1563q1bN12IAVQvar9+/XQcjAeJTk5O1veyoQjtYCJ5z/jx44UlTyiSbfEFPAJ47BsEF+6GPSPbzG+8KeeoCee0hfv5UUtKSrRf3gsovINrvJNr2F1z3YwLVbYtvoBnK/a2g4zWdr6AF60f6/W4/oHXCET/A6R0wq8kxn6jAAAAAElFTkSuQmCC;" vertex="1" parent="1">
          <mxGeometry x="170" y="80" width="59.62" height="40" as="geometry" />
        </mxCell>
        <mxCell id="49qXQRo_gZD2U18-b2aV-2" value="设计者" style="shape=image;verticalLabelPosition=bottom;labelBackgroundColor=#ffffff;verticalAlign=top;aspect=fixed;imageAspect=0;image=data:image/png,iVBORw0KGgoAAAANSUhEUgAAAE8AAAA1CAYAAAAAjbYhAAAJYElEQVR4Ae2bZ08VTRTH/Qp+FA3vfWGiMTHBYFfQiFhi74m9AyrYe6+IKCJWVLBj7713VBRFEQUVPU9+Jxmybu7lDrDL3pvHSSa7d3d2dvY/p/zPmbnN5F9pMALNGvxkAx6sqamRHz9+aOU81ovv4P3580fKysrk0qVLkpWVJSNHjpSBAwdKamqq5Ofny+PHjxXMWATSV/B+/vwp58+fl4yMDFm1apUcOHBAAdu7d69s3bpVFi9eLJmZmVJUVBSTAPoK3pUrV2TWrFkyY8YMOXv2rHz69KlWwD5//izXr1+X9evXy6JFi6S4uLj2Xqyc+AZedXW1Stf06dPl1q1bYfF49+6drF69WiZMmCCHDh2SZ8+eSazYQ9/Ae/Lkidq4wsLCsMCZG6ht165dpXXr1jJt2jS5ceNGTADoG3iAlpeXJ2/evDEYhT3evXtXxo0bJ23btpX+/fvL8uXLpaqqKmz7aLnhG3g4h6NHjwpOI1J59OiRqrhxHC9evJDfv39Heizw+76Bd/nyZfWuqG+kgt3DoSCBsVR8Aw/PumzZMpk7d67gWcMVHMuFCxcUaECMpeIbeJBjSDAOAPtXUVEhlZWVqsa/fv2Sb9++6TWcw86dO+XkyZOxhJuO1TfwsFlED7t27VKSPHXqVAUSTrd06VKZOHGiRhkLFiyQLVu2CGr+/v37mHAUZpZ9Aw8g9u/fr2o7duxY6dy5s9bhw4fLmDFj1KvOnDlTNm3apF55x44dGoVs3rw5Zvieb+Ddv39fVq5cKfPmzZPt27fLxo0bBYBOnDghp0+fljNnzqiDeP36tTx48ECOHDlSG21MmTJFow5CuJs3b6qKm9mOpqNv4N2+fVsl7+rVq2rbvn79KtjBcAVeh5N5+vSpPkfcO3ToUJkzZ47s27dP6O/jx49RRWF8A+/OnTsa8ANGQwr8kNiY0A2ng9fevXu33Lt3TycDp2NbsL949bomz7YvZzvfwOMjDx48KIBoUwCLaAQnA7Vxxrdv376ttZ+YAbz4tWvXVJ2d7dzv4R5eHRNCdgcqVFd79/ORfnsGHoMyiU6k4uHDhzrgly9fRhqD3i8vL5ecnBxJSUnRLMzFixfl+/fvf6kpqn/8+HGZPXu2jBgxQjZs2KDvCSWF0CJoEFyzT58+6qTWrFkjtuOxGbQn4GGvUKm+fftKly5dtLZp00ZVznamkS48LdQFBwOVwXEQH/PBph8mCCeD00EK8dZfvnzRb0Utaff8+XP13B06dJCWLVtK8+bNFWwSsSRlvSqegMcsIwVkisnLkadDMuB0fKxNwTauW7dOpYX+UF/6IlU1evRoyc7OFkI9+gMg7CFOBRBpb9QT4HEyeHfia5xOXFycTJo0SftCuqFRXhTPwNu2bZtKiAGLwQOeTWzLh7x69UptmcnCIEVINEmDw4cPK7EmdQ/9AUiAPnfunIZ2qDKgmHt4+NLSUlV7pJAIhwnlGc6NpDYWQM/AY8adMSyRBSQYPmdTAA2QQsW3eEomAQdEumrhwoV6hAcSrcAfARAbB2jujAySyqQeO3ZMqZDNeGzaeAoeRt8UJAG7RZrJphjw+PhwxSQRsHVLlizRmBgOSDaG2LmuAoBIKp7XaEdd7W3u+QYewT5qa0tVUC8kiDQ8zyDJmALsqKn0iaSRde7du7c6F9ZAaIsqm3Yc6QtnQyWvyGSi9owJqoMU84zzHcTYdU2eG1DPwGOwTsnLzc3VgdkaZyKItLQ0pTdQCjLKw4YNU8eD8zEVB8DSJUccyahRo2rvmTYciadJRlBxLGgB7QGQCcCpEGMTa9Oed7Vo0UKl05ZMewIe/AsHQfhkClLCkiNk1qZg5Pk4DDqUBerSlAWu2LFjR4FfNil4gMbs4THNi1GTyZMnqyG3AQG7hTScOnVK1c8mfW/Tr20b7CCZnyYHDzsBIYWrGfCQvPnz52tWxOYDAB6izeABkeiiKUug4MXHx/8FHjYQEFBHm4K3hdQiedgnr7iYzbtpExh4Hz58UCPuVFt4HtJnCwJ94Bkx6EwEHhFaAU8k10dgD9HFhhKuubmcLUjh2gUGHhyLvShs6DEF8JAk248kmoDk4hm7d++unprQi9gVegEdoT9oCCDzsV6WwMAjtsRBOCMMqApcythAmw/FzgEgEQQRBbaU8Awagz1FtVlpA0DA9rIECh6Sgdc1YKGyrGHA7OtTyCYjtaEklr4h0fTttUMJFDx4HlvHWEIkDIKmkHfjN+qHI6irmjb0weYg4lDsHWsYVDIsrH8UFBSo2hKqeVkCAw+SbMKmAQMGKFtv37690pfBgwfLkCFDrCuJy1atWmlSNCkpSfs1e/l4x549e9Rx1FeiIwEdOHiDBg3SgJ3UDzEnde3atfWqBP3t2rXTjEzPnj012iB3R7xL1GHMQiQw6ns/MPBwGATVLCGGslX1+RCcBJ4bacZm4kC8VtFQ4wkUPLITZH/5eJIBDak8S5gGeHhW+mQngdeeNarAIwWOt2V/MWpHZamQxRdUGJ6GEyDicN7jOiEcR9pS2YLbo0cPSU9PV9tJPtBrzxpV4BHEs9QIiSUyMBVPS3jGb0CBn+FN+Y3nJIMC7YD08psKPwQ4jmw7c9KfUB/t1bXA1BYjzsshyeT0TMUWkuphsyKRAoCgjnA57hG6QWtQTaSLa4RegIkKh1pS9Aosdz+BgeceiPs3YJExQeoYpLMgXYBnCm0Bz2sqYvoPd4xa8Aj64WcE9U5QOEdVkT5TcDSod1N4WPNOjlELHuoMSM7EgRk4kQU5PFOMlLol1Nz36xg14CE12DOAADhW+AnosWdco2IXAROJ5P8X8DqukwDAifxvMsluaWBLAzsIWGOFs7EYTWi1YsUKPecaFWrCFg0WXyDZtGMRiBAP0CHcqHZja6h+uGYq/fO+Tp06NX0a3g0eoBCXAgrbw1jBYt8Jq1WsepE0YBsFMS8be2gDuOwl4Tn2u2AHsZFQncZU+oC8k9Yy/RG1kPIieQvFIvwjfZaQkKDvsg0BPVk9c4PHeijgkJeDPFPJugASgHIOwJxDiBMTE6VXr1563q1bN12IAVQvar9+/XQcjAeJTk5O1veyoQjtYCJ5z/jx44UlTyiSbfEFPAJ47BsEF+6GPSPbzG+8KeeoCee0hfv5UUtKSrRf3gsovINrvJNr2F1z3YwLVbYtvoBnK/a2g4zWdr6AF60f6/W4/oHXCET/A6R0wq8kxn6jAAAAAElFTkSuQmCC;" vertex="1" parent="1">
          <mxGeometry x="340" y="80" width="59.62" height="40" as="geometry" />
        </mxCell>
        <mxCell id="49qXQRo_gZD2U18-b2aV-3" value="专家" style="shape=image;verticalLabelPosition=bottom;labelBackgroundColor=#ffffff;verticalAlign=top;aspect=fixed;imageAspect=0;image=data:image/png,iVBORw0KGgoAAAANSUhEUgAAAE8AAAA1CAYAAAAAjbYhAAAJYElEQVR4Ae2bZ08VTRTH/Qp+FA3vfWGiMTHBYFfQiFhi74m9AyrYe6+IKCJWVLBj7713VBRFEQUVPU9+Jxmybu7lDrDL3pvHSSa7d3d2dvY/p/zPmbnN5F9pMALNGvxkAx6sqamRHz9+aOU81ovv4P3580fKysrk0qVLkpWVJSNHjpSBAwdKamqq5Ofny+PHjxXMWATSV/B+/vwp58+fl4yMDFm1apUcOHBAAdu7d69s3bpVFi9eLJmZmVJUVBSTAPoK3pUrV2TWrFkyY8YMOXv2rHz69KlWwD5//izXr1+X9evXy6JFi6S4uLj2Xqyc+AZedXW1Stf06dPl1q1bYfF49+6drF69WiZMmCCHDh2SZ8+eSazYQ9/Ae/Lkidq4wsLCsMCZG6ht165dpXXr1jJt2jS5ceNGTADoG3iAlpeXJ2/evDEYhT3evXtXxo0bJ23btpX+/fvL8uXLpaqqKmz7aLnhG3g4h6NHjwpOI1J59OiRqrhxHC9evJDfv39Heizw+76Bd/nyZfWuqG+kgt3DoSCBsVR8Aw/PumzZMpk7d67gWcMVHMuFCxcUaECMpeIbeJBjSDAOAPtXUVEhlZWVqsa/fv2Sb9++6TWcw86dO+XkyZOxhJuO1TfwsFlED7t27VKSPHXqVAUSTrd06VKZOHGiRhkLFiyQLVu2CGr+/v37mHAUZpZ9Aw8g9u/fr2o7duxY6dy5s9bhw4fLmDFj1KvOnDlTNm3apF55x44dGoVs3rw5Zvieb+Ddv39fVq5cKfPmzZPt27fLxo0bBYBOnDghp0+fljNnzqiDeP36tTx48ECOHDlSG21MmTJFow5CuJs3b6qKm9mOpqNv4N2+fVsl7+rVq2rbvn79KtjBcAVeh5N5+vSpPkfcO3ToUJkzZ47s27dP6O/jx49RRWF8A+/OnTsa8ANGQwr8kNiY0A2ng9fevXu33Lt3TycDp2NbsL949bomz7YvZzvfwOMjDx48KIBoUwCLaAQnA7Vxxrdv376ttZ+YAbz4tWvXVJ2d7dzv4R5eHRNCdgcqVFd79/ORfnsGHoMyiU6k4uHDhzrgly9fRhqD3i8vL5ecnBxJSUnRLMzFixfl+/fvf6kpqn/8+HGZPXu2jBgxQjZs2KDvCSWF0CJoEFyzT58+6qTWrFkjtuOxGbQn4GGvUKm+fftKly5dtLZp00ZVznamkS48LdQFBwOVwXEQH/PBph8mCCeD00EK8dZfvnzRb0Utaff8+XP13B06dJCWLVtK8+bNFWwSsSRlvSqegMcsIwVkisnLkadDMuB0fKxNwTauW7dOpYX+UF/6IlU1evRoyc7OFkI9+gMg7CFOBRBpb9QT4HEyeHfia5xOXFycTJo0SftCuqFRXhTPwNu2bZtKiAGLwQOeTWzLh7x69UptmcnCIEVINEmDw4cPK7EmdQ/9AUiAPnfunIZ2qDKgmHt4+NLSUlV7pJAIhwnlGc6NpDYWQM/AY8adMSyRBSQYPmdTAA2QQsW3eEomAQdEumrhwoV6hAcSrcAfARAbB2jujAySyqQeO3ZMqZDNeGzaeAoeRt8UJAG7RZrJphjw+PhwxSQRsHVLlizRmBgOSDaG2LmuAoBIKp7XaEdd7W3u+QYewT5qa0tVUC8kiDQ8zyDJmALsqKn0iaSRde7du7c6F9ZAaIsqm3Yc6QtnQyWvyGSi9owJqoMU84zzHcTYdU2eG1DPwGOwTsnLzc3VgdkaZyKItLQ0pTdQCjLKw4YNU8eD8zEVB8DSJUccyahRo2rvmTYciadJRlBxLGgB7QGQCcCpEGMTa9Oed7Vo0UKl05ZMewIe/AsHQfhkClLCkiNk1qZg5Pk4DDqUBerSlAWu2LFjR4FfNil4gMbs4THNi1GTyZMnqyG3AQG7hTScOnVK1c8mfW/Tr20b7CCZnyYHDzsBIYWrGfCQvPnz52tWxOYDAB6izeABkeiiKUug4MXHx/8FHjYQEFBHm4K3hdQiedgnr7iYzbtpExh4Hz58UCPuVFt4HtJnCwJ94Bkx6EwEHhFaAU8k10dgD9HFhhKuubmcLUjh2gUGHhyLvShs6DEF8JAk248kmoDk4hm7d++unprQi9gVegEdoT9oCCDzsV6WwMAjtsRBOCMMqApcythAmw/FzgEgEQQRBbaU8Awagz1FtVlpA0DA9rIECh6Sgdc1YKGyrGHA7OtTyCYjtaEklr4h0fTttUMJFDx4HlvHWEIkDIKmkHfjN+qHI6irmjb0weYg4lDsHWsYVDIsrH8UFBSo2hKqeVkCAw+SbMKmAQMGKFtv37690pfBgwfLkCFDrCuJy1atWmlSNCkpSfs1e/l4x549e9Rx1FeiIwEdOHiDBg3SgJ3UDzEnde3atfWqBP3t2rXTjEzPnj012iB3R7xL1GHMQiQw6ns/MPBwGATVLCGGslX1+RCcBJ4bacZm4kC8VtFQ4wkUPLITZH/5eJIBDak8S5gGeHhW+mQngdeeNarAIwWOt2V/MWpHZamQxRdUGJ6GEyDicN7jOiEcR9pS2YLbo0cPSU9PV9tJPtBrzxpV4BHEs9QIiSUyMBVPS3jGb0CBn+FN+Y3nJIMC7YD08psKPwQ4jmw7c9KfUB/t1bXA1BYjzsshyeT0TMUWkuphsyKRAoCgjnA57hG6QWtQTaSLa4RegIkKh1pS9Aosdz+BgeceiPs3YJExQeoYpLMgXYBnCm0Bz2sqYvoPd4xa8Aj64WcE9U5QOEdVkT5TcDSod1N4WPNOjlELHuoMSM7EgRk4kQU5PFOMlLol1Nz36xg14CE12DOAADhW+AnosWdco2IXAROJ5P8X8DqukwDAifxvMsluaWBLAzsIWGOFs7EYTWi1YsUKPecaFWrCFg0WXyDZtGMRiBAP0CHcqHZja6h+uGYq/fO+Tp06NX0a3g0eoBCXAgrbw1jBYt8Jq1WsepE0YBsFMS8be2gDuOwl4Tn2u2AHsZFQncZU+oC8k9Yy/RG1kPIieQvFIvwjfZaQkKDvsg0BPVk9c4PHeijgkJeDPFPJugASgHIOwJxDiBMTE6VXr1563q1bN12IAVQvar9+/XQcjAeJTk5O1veyoQjtYCJ5z/jx44UlTyiSbfEFPAJ47BsEF+6GPSPbzG+8KeeoCee0hfv5UUtKSrRf3gsovINrvJNr2F1z3YwLVbYtvoBnK/a2g4zWdr6AF60f6/W4/oHXCET/A6R0wq8kxn6jAAAAAElFTkSuQmCC;" vertex="1" parent="1">
          <mxGeometry x="510" y="80" width="59.62" height="40" as="geometry" />
        </mxCell>
        <mxCell id="49qXQRo_gZD2U18-b2aV-4" value="用户层" style="text;html=1;align=center;verticalAlign=middle;resizable=0;points=[];autosize=1;strokeColor=none;fillColor=none;" vertex="1" parent="1">
          <mxGeometry x="25" y="110" width="50" height="20" as="geometry" />
        </mxCell>
        <mxCell id="49qXQRo_gZD2U18-b2aV-5" value="协议层" style="text;html=1;align=center;verticalAlign=middle;resizable=0;points=[];autosize=1;strokeColor=none;fillColor=none;" vertex="1" parent="1">
          <mxGeometry x="25" y="170" width="50" height="20" as="geometry" />
        </mxCell>
        <mxCell id="49qXQRo_gZD2U18-b2aV-6" value="服务层" style="text;html=1;align=center;verticalAlign=middle;resizable=0;points=[];autosize=1;strokeColor=none;fillColor=none;" vertex="1" parent="1">
          <mxGeometry x="25" y="230" width="50" height="20" as="geometry" />
        </mxCell>
        <mxCell id="49qXQRo_gZD2U18-b2aV-7" value="协议层" style="text;html=1;align=center;verticalAlign=middle;resizable=0;points=[];autosize=1;strokeColor=none;fillColor=none;" vertex="1" parent="1">
          <mxGeometry x="25" y="370" width="50" height="20" as="geometry" />
        </mxCell>
        <mxCell id="49qXQRo_gZD2U18-b2aV-8" value="资源层" style="text;html=1;align=center;verticalAlign=middle;resizable=0;points=[];autosize=1;strokeColor=none;fillColor=none;" vertex="1" parent="1">
          <mxGeometry x="25" y="450" width="50" height="20" as="geometry" />
        </mxCell>
        <mxCell id="49qXQRo_gZD2U18-b2aV-9" value="" style="endArrow=none;html=1;" edge="1" parent="1">
          <mxGeometry width="50" height="50" relative="1" as="geometry">
            <mxPoint x="80" y="70" as="sourcePoint" />
            <mxPoint x="630" y="70" as="targetPoint" />
          </mxGeometry>
        </mxCell>
        <mxCell id="49qXQRo_gZD2U18-b2aV-10" value="" style="endArrow=none;html=1;" edge="1" parent="1">
          <mxGeometry width="50" height="50" relative="1" as="geometry">
            <mxPoint x="80" y="150" as="sourcePoint" />
            <mxPoint x="630" y="150" as="targetPoint" />
          </mxGeometry>
        </mxCell>
        <mxCell id="49qXQRo_gZD2U18-b2aV-11" value="" style="endArrow=none;html=1;" edge="1" parent="1">
          <mxGeometry width="50" height="50" relative="1" as="geometry">
            <mxPoint x="80" y="210" as="sourcePoint" />
            <mxPoint x="630" y="210" as="targetPoint" />
          </mxGeometry>
        </mxCell>
        <mxCell id="49qXQRo_gZD2U18-b2aV-12" value="" style="endArrow=none;html=1;" edge="1" parent="1">
          <mxGeometry width="50" height="50" relative="1" as="geometry">
            <mxPoint x="80" y="360" as="sourcePoint" />
            <mxPoint x="630" y="360" as="targetPoint" />
          </mxGeometry>
        </mxCell>
        <mxCell id="49qXQRo_gZD2U18-b2aV-13" value="" style="endArrow=none;html=1;" edge="1" parent="1">
          <mxGeometry width="50" height="50" relative="1" as="geometry">
            <mxPoint x="80" y="410" as="sourcePoint" />
            <mxPoint x="630" y="410" as="targetPoint" />
          </mxGeometry>
        </mxCell>
        <mxCell id="49qXQRo_gZD2U18-b2aV-14" value="" style="endArrow=none;html=1;" edge="1" parent="1">
          <mxGeometry width="50" height="50" relative="1" as="geometry">
            <mxPoint x="80" y="520" as="sourcePoint" />
            <mxPoint x="630" y="520" as="targetPoint" />
          </mxGeometry>
        </mxCell>
        <mxCell id="49qXQRo_gZD2U18-b2aV-15" value="" style="endArrow=none;html=1;" edge="1" parent="1">
          <mxGeometry width="50" height="50" relative="1" as="geometry">
            <mxPoint x="80" y="360" as="sourcePoint" />
            <mxPoint x="80" y="210" as="targetPoint" />
          </mxGeometry>
        </mxCell>
        <mxCell id="49qXQRo_gZD2U18-b2aV-16" value="" style="endArrow=none;html=1;" edge="1" parent="1">
          <mxGeometry width="50" height="50" relative="1" as="geometry">
            <mxPoint x="630" y="360" as="sourcePoint" />
            <mxPoint x="630" y="210" as="targetPoint" />
          </mxGeometry>
        </mxCell>
        <mxCell id="49qXQRo_gZD2U18-b2aV-17" value="WEB服务器" style="text;html=1;align=center;verticalAlign=middle;resizable=0;points=[];autosize=1;strokeColor=none;fillColor=none;" vertex="1" parent="1">
          <mxGeometry x="290" y="170" width="80" height="20" as="geometry" />
        </mxCell>
        <mxCell id="49qXQRo_gZD2U18-b2aV-18" value="" style="shape=flexArrow;endArrow=classic;startArrow=classic;html=1;" edge="1" parent="1">
          <mxGeometry width="100" height="100" relative="1" as="geometry">
            <mxPoint x="220" y="205" as="sourcePoint" />
            <mxPoint x="220" y="155" as="targetPoint" />
          </mxGeometry>
        </mxCell>
        <mxCell id="49qXQRo_gZD2U18-b2aV-20" value="" style="shape=flexArrow;endArrow=classic;startArrow=classic;html=1;" edge="1" parent="1">
          <mxGeometry width="100" height="100" relative="1" as="geometry">
            <mxPoint x="430" y="203" as="sourcePoint" />
            <mxPoint x="430" y="153" as="targetPoint" />
          </mxGeometry>
        </mxCell>
      </root>
    </mxGraphModel>
  </diagram>
</mxfile>
